<svg xmlns="http://www.w3.org/2000/svg" xmlns:xlink="http://www.w3.org/1999/xlink" version="1.1" x="0px" y="0px" viewBox="0 0 64 80" style="enable-background:new 0 0 64 64;" xml:space="preserve"><path d="M14.5,58C8.3,58,2.7,53.8,1,47.8c-0.1-0.3,0-0.7,0.3-1c0.3-0.3,0.6-0.4,1-0.3C3.3,46.8,4.4,47,5.5,47c6.6,0,12-5.4,12-12  c0-1.1-0.2-2.2-0.5-3.2c-0.1-0.3,0-0.7,0.3-1c0.3-0.3,0.6-0.4,1-0.3c6,1.7,10.2,7.2,10.2,13.5C28.5,51.7,22.2,58,14.5,58z M3.5,48.9  c1.9,4.3,6.2,7.1,11,7.1c6.6,0,12-5.4,12-12c0-4.8-2.9-9.1-7.1-11c0.1,0.7,0.1,1.3,0.1,2c0,7.7-6.3,14-14,14C4.9,49,4.2,49,3.5,48.9  z"/><path d="M53.2,54.2c-0.3,0-0.5-0.1-0.7-0.3L10.1,11.5c-0.4-0.4-0.4-1,0-1.4s1-0.4,1.4,0l42.4,42.4c0.4,0.4,0.4,1,0,1.4  C53.7,54.1,53.5,54.2,53.2,54.2z"/><path d="M49,26c-3.3,0-6-2.7-6-6s2.7-6,6-6s6,2.7,6,6S52.3,26,49,26z M49,16c-2.2,0-4,1.8-4,4s1.8,4,4,4s4-1.8,4-4S51.2,16,49,16z"/><path d="M49,12c-0.6,0-1-0.4-1-1V7c0-0.6,0.4-1,1-1s1,0.4,1,1v4C50,11.6,49.6,12,49,12z"/><path d="M49,34c-0.6,0-1-0.4-1-1v-4c0-0.6,0.4-1,1-1s1,0.4,1,1v4C50,33.6,49.6,34,49,34z"/><path d="M42.6,14.6c-0.3,0-0.5-0.1-0.7-0.3l-2.8-2.8c-0.4-0.4-0.4-1,0-1.4c0.4-0.4,1-0.4,1.4,0l2.8,2.8c0.4,0.4,0.4,1,0,1.4  C43.1,14.5,42.9,14.6,42.6,14.6z"/><path d="M58.2,30.2c-0.3,0-0.5-0.1-0.7-0.3l-2.8-2.8c-0.4-0.4-0.4-1,0-1.4c0.4-0.4,1-0.4,1.4,0l2.8,2.8c0.4,0.4,0.4,1,0,1.4  C58.7,30.1,58.4,30.2,58.2,30.2z"/><path d="M40,21h-4c-0.6,0-1-0.4-1-1s0.4-1,1-1h4c0.6,0,1,0.4,1,1S40.6,21,40,21z"/><path d="M62,21h-4c-0.6,0-1-0.4-1-1s0.4-1,1-1h4c0.6,0,1,0.4,1,1S62.6,21,62,21z"/><path d="M39.8,30.2c-0.3,0-0.5-0.1-0.7-0.3c-0.4-0.4-0.4-1,0-1.4l2.8-2.8c0.4-0.4,1-0.4,1.4,0c0.4,0.4,0.4,1,0,1.4l-2.8,2.8  C40.3,30.1,40.1,30.2,39.8,30.2z"/><path d="M55.4,14.6c-0.3,0-0.5-0.1-0.7-0.3c-0.4-0.4-0.4-1,0-1.4l2.8-2.8c0.4-0.4,1-0.4,1.4,0c0.4,0.4,0.4,1,0,1.4l-2.8,2.8  C55.9,14.5,55.6,14.6,55.4,14.6z"/><text x="0" y="79" fill="#000000" font-size="5px" font-weight="bold" font-family="'Helvetica Neue', Helvetica, Arial-Unicode, Arial, Sans-serif">Created by Rahmat Hidayat</text><text x="0" y="84" fill="#000000" font-size="5px" font-weight="bold" font-family="'Helvetica Neue', Helvetica, Arial-Unicode, Arial, Sans-serif">from the Noun Project</text></svg>